<mxfile host="app.diagrams.net" modified="2024-06-06T15:09:31.469Z" agent="Mozilla/5.0 (Windows NT 10.0; Win64; x64) AppleWebKit/537.36 (KHTML, like Gecko) Chrome/122.0.0.0 Safari/537.36 Edg/122.0.0.0" etag="0jid2NYZcTsECT-5Tnf2" version="24.4.15" type="github">
  <diagram name="第 1 页" id="K03xUYpfyMEb_Ifnkir4">
    <mxGraphModel dx="688" dy="579" grid="1" gridSize="10" guides="1" tooltips="1" connect="1" arrows="1" fold="1" page="1" pageScale="1" pageWidth="827" pageHeight="1169" math="0" shadow="0">
      <root>
        <mxCell id="0" />
        <mxCell id="1" parent="0" />
        <mxCell id="KkEfUCHIOCfM9m_zTAL1-8" value="" style="group;strokeColor=none;strokeWidth=2;" vertex="1" connectable="0" parent="1">
          <mxGeometry x="194" y="30" width="479" height="160" as="geometry" />
        </mxCell>
        <mxCell id="KkEfUCHIOCfM9m_zTAL1-1" value="" style="endArrow=none;html=1;rounded=0;strokeColor=default;strokeWidth=2;" edge="1" parent="KkEfUCHIOCfM9m_zTAL1-8">
          <mxGeometry width="50" height="50" relative="1" as="geometry">
            <mxPoint y="160" as="sourcePoint" />
            <mxPoint x="80" as="targetPoint" />
          </mxGeometry>
        </mxCell>
        <mxCell id="KkEfUCHIOCfM9m_zTAL1-2" value="" style="endArrow=none;html=1;rounded=0;strokeColor=default;strokeWidth=2;" edge="1" parent="KkEfUCHIOCfM9m_zTAL1-8">
          <mxGeometry width="50" height="50" relative="1" as="geometry">
            <mxPoint x="80" y="160" as="sourcePoint" />
            <mxPoint x="160" as="targetPoint" />
          </mxGeometry>
        </mxCell>
        <mxCell id="KkEfUCHIOCfM9m_zTAL1-3" value="" style="endArrow=none;html=1;rounded=0;strokeColor=default;strokeWidth=2;" edge="1" parent="KkEfUCHIOCfM9m_zTAL1-8">
          <mxGeometry width="50" height="50" relative="1" as="geometry">
            <mxPoint x="160" y="160" as="sourcePoint" />
            <mxPoint x="240" as="targetPoint" />
          </mxGeometry>
        </mxCell>
        <mxCell id="KkEfUCHIOCfM9m_zTAL1-4" value="" style="endArrow=none;html=1;rounded=0;strokeColor=default;strokeWidth=2;" edge="1" parent="KkEfUCHIOCfM9m_zTAL1-8">
          <mxGeometry width="50" height="50" relative="1" as="geometry">
            <mxPoint x="240" y="160" as="sourcePoint" />
            <mxPoint x="320" as="targetPoint" />
          </mxGeometry>
        </mxCell>
        <mxCell id="KkEfUCHIOCfM9m_zTAL1-5" value="" style="endArrow=none;html=1;rounded=0;strokeColor=default;strokeWidth=2;" edge="1" parent="KkEfUCHIOCfM9m_zTAL1-8">
          <mxGeometry width="50" height="50" relative="1" as="geometry">
            <mxPoint x="400" y="160" as="sourcePoint" />
            <mxPoint x="320" as="targetPoint" />
          </mxGeometry>
        </mxCell>
        <mxCell id="KkEfUCHIOCfM9m_zTAL1-6" value="" style="endArrow=none;html=1;rounded=0;strokeColor=default;strokeWidth=2;" edge="1" parent="KkEfUCHIOCfM9m_zTAL1-8">
          <mxGeometry width="50" height="50" relative="1" as="geometry">
            <mxPoint x="479" y="160" as="sourcePoint" />
            <mxPoint x="399" as="targetPoint" />
          </mxGeometry>
        </mxCell>
        <mxCell id="KkEfUCHIOCfM9m_zTAL1-16" value="" style="group" vertex="1" connectable="0" parent="1">
          <mxGeometry x="194" y="40" width="480" height="160" as="geometry" />
        </mxCell>
        <mxCell id="KkEfUCHIOCfM9m_zTAL1-9" value="" style="rounded=0;whiteSpace=wrap;html=1;fillColor=none;" vertex="1" parent="KkEfUCHIOCfM9m_zTAL1-16">
          <mxGeometry x="-1" width="80" height="160" as="geometry" />
        </mxCell>
        <mxCell id="KkEfUCHIOCfM9m_zTAL1-11" value="" style="rounded=0;whiteSpace=wrap;html=1;fillColor=none;" vertex="1" parent="KkEfUCHIOCfM9m_zTAL1-16">
          <mxGeometry x="80" width="80" height="160" as="geometry" />
        </mxCell>
        <mxCell id="KkEfUCHIOCfM9m_zTAL1-12" value="" style="rounded=0;whiteSpace=wrap;html=1;fillColor=none;" vertex="1" parent="KkEfUCHIOCfM9m_zTAL1-16">
          <mxGeometry x="160" width="80" height="160" as="geometry" />
        </mxCell>
        <mxCell id="KkEfUCHIOCfM9m_zTAL1-13" value="" style="rounded=0;whiteSpace=wrap;html=1;fillColor=none;" vertex="1" parent="KkEfUCHIOCfM9m_zTAL1-16">
          <mxGeometry x="240" width="80" height="160" as="geometry" />
        </mxCell>
        <mxCell id="KkEfUCHIOCfM9m_zTAL1-14" value="" style="rounded=0;whiteSpace=wrap;html=1;fillColor=none;" vertex="1" parent="KkEfUCHIOCfM9m_zTAL1-16">
          <mxGeometry x="320" width="80" height="160" as="geometry" />
        </mxCell>
        <mxCell id="KkEfUCHIOCfM9m_zTAL1-15" value="" style="rounded=0;whiteSpace=wrap;html=1;fillColor=none;" vertex="1" parent="KkEfUCHIOCfM9m_zTAL1-16">
          <mxGeometry x="400" width="80" height="160" as="geometry" />
        </mxCell>
        <mxCell id="KkEfUCHIOCfM9m_zTAL1-20" value="" style="endArrow=none;html=1;rounded=0;" edge="1" parent="1">
          <mxGeometry width="50" height="50" relative="1" as="geometry">
            <mxPoint x="160" y="120" as="sourcePoint" />
            <mxPoint x="720" y="120" as="targetPoint" />
          </mxGeometry>
        </mxCell>
      </root>
    </mxGraphModel>
  </diagram>
</mxfile>
